<svg xmlns="http://www.w3.org/2000/svg" viewBox="0 0 55.17 55.96"><defs><style>.cls-1{fill:#f8c536;}.cls-2{fill:#fff;}</style></defs><g id="bumble"><rect class="cls-1" x="3.72" y="4.11" width="47.74" height="47.74" rx="12"/></g><g id="hexagon"><path class="cls-2" d="M37.86,12.71,45.52,26a3.58,3.58,0,0,1,0,3.58L37.86,42.8a3.56,3.56,0,0,1-3.1,1.79H19.46a3.57,3.57,0,0,1-3.1-1.79L8.71,29.55a3.58,3.58,0,0,1,0-3.58l7.65-13.26a3.59,3.59,0,0,1,3.1-1.79h15.3A3.58,3.58,0,0,1,37.86,12.71Z"/></g><g id="tinder"><rect class="cls-1" x="22.61" y="19.31" width="8.89" height="1.66" rx="0.74"/><rect class="cls-1" x="21.01" y="22.41" width="12.18" height="1.66" rx="0.74"/><rect class="cls-1" x="19.4" y="25.28" width="15.42" height="1.66" rx="0.74"/><rect class="cls-1" x="20.96" y="28.37" width="12.18" height="1.66" rx="0.74"/><rect class="cls-1" x="23.18" y="31.46" width="7.9" height="1.66" rx="0.74"/><rect class="cls-1" x="24.85" y="34.54" width="4.54" height="1.66" rx="0.74"/></g></svg>