<svg xmlns="http://www.w3.org/2000/svg" viewBox="0 0 175.43 161"><defs><style>.cls-1{fill:#a01d20;}.cls-2{fill:#bb2025;}.cls-3{fill:#ed2224;}.cls-4{fill:#fff;}.cls-5{fill:#f8f8f9;}.cls-6{fill:#dadbdc;}</style></defs><g id="bottom2"><path class="cls-1" d="M32.42,154.63a250,250,0,0,1-11.21-25.12c-4.14-10.8-8.49-22.15-10.54-37.45-1-7.34-.72-21.63.59-34.47,2.18,2,41.8,44.72,29.46,81.34A48.06,48.06,0,0,1,32.42,154.63Z"/></g><g id="bottom_of_heart1" data-name="bottom of heart1"><path class="cls-2" d="M171.34,91.39C171,101,171,108.71,171,110.22a17.43,17.43,0,0,1-.33,3.45c-.05.28-.1.45-.12.59-1.8,9.65-14.35,17.94-14.35,17.94A98.09,98.09,0,0,1,128.62,145c-18,5.43-38.12,7.4-38.12,7.4a466,466,0,0,1-58.08,2.25c.22-6.13.11-11.7.33-17.83,8.79-7.85,85.81-75.65,130-51.24C165.81,87.27,168.49,88.58,171.34,91.39Z"/></g><g id="choco_heart" data-name="choco heart"><path class="cls-3" d="M94.31,67.84A22.09,22.09,0,0,0,97,55.06c-.59-5.67-3.41-9.45-5.72-12.45a44.73,44.73,0,0,0-21.19-14.8c-16.13-5-30,1.26-34.64,3.37C29.39,33.92,19.84,38.25,14.25,49c-3.91,7.53-4.12,15.12-3.36,23.21,2.46,26.36,14.28,50.89,21.86,64.59,8.58.33,17.68.37,27.25,0,15.42-.6,31.44-1.19,51.13-5.72a199.88,199.88,0,0,0,35.32-12.45c8.18-3.75,16.09-8.06,21.19-16.48,3.26-5.37,3.77-9.54,3.7-10.76-1-17.33-10.42-28.26-23.88-34.31s-26.56-1.51-35,1.34A67.8,67.8,0,0,0,94.31,67.84Z"/></g><g id="ribbon_horizontal" data-name="ribbon horizontal"><path class="cls-4" d="M23.62,37.9a21.17,21.17,0,0,0-4.15,3.48,21.8,21.8,0,0,0-1.8,2.24l114.6,81c2.38-.81,4.86-1.77,7.4-2.92l1.68-.78Z"/><path class="cls-4" d="M17,25.65,5.81,16.3C4,14.76,1.3,17.4,3.16,19L14.33,28.3c1.84,1.54,4.51-1.1,2.65-2.65Z"/><path class="cls-4" d="M30.9,16.81l-5-13.68c-.82-2.24-4.45-1.27-3.61,1l5,13.68c.82,2.24,4.45,1.27,3.61-1Z"/><path class="cls-4" d="M45.52,17.94,49.75,4c.7-2.32-2.92-3.31-3.62-1L41.91,16.94c-.7,2.32,2.91,3.31,3.61,1Z"/></g><g id="ribbon_vertical" data-name="ribbon vertical"><path class="cls-5" d="M76.37,30.61Q45.55,61.8,14.7,93q1.43,4.85,2.83,9.7Q50.29,68.55,83,34.45a35.86,35.86,0,0,0-3.11-2A38,38,0,0,0,76.37,30.61Z"/></g><g id="bow"><path class="cls-4" d="M52.57,54.76c-1-1.13-2.45-2.94-4.15-5.27-2.49-3.41-3.47-5.24-6-8.18-2.67-3.17-4-4.76-5.94-4.82-.83,0-2.24.21-5.16,3.25a46.7,46.7,0,0,0-6.72,10.43c.47-.15,2.18-2.3,22.65,10.2Z"/><path class="cls-4" d="M59.38,59.09a43.64,43.64,0,0,0,8.3,2.58,28.65,28.65,0,0,1,9,2.81,5.21,5.21,0,0,1,2.58,2.58,5.09,5.09,0,0,1,0,3.25A5.93,5.93,0,0,1,78,72.44c-1.36,1.56-3.63,4.58-6.81,9-1.23-1.55-2.58-3.14-4.07-4.73A79.8,79.8,0,0,0,53.61,65.1Z"/><path class="cls-4" d="M132.27,124.58q.24,9.54.49,19.09a43.17,43.17,0,0,0,9.2-3.56q-.3-9.62-.61-19.23Z"/><path class="cls-5" d="M14.7,93l-2.49,8.1a50.28,50.28,0,0,0,2.24,9c1-2.48,2.06-4.95,3.1-7.43Z"/></g><g id="bow_shadow" data-name="bow shadow"><path class="cls-6" d="M24.65,50.17a2.48,2.48,0,0,0-.9,1.12A4.18,4.18,0,0,0,24.87,56a5.48,5.48,0,0,0,2.13.89,26.69,26.69,0,0,0,4,.9c13.09,2.79,16.14,3,16.26,2.58.05-.21-.65-.53-2.85-1.72-3.74-2-2.49-1.52-7.07-4-1.59-.87-3.88-1.9-8.46-4C27.74,50.15,25.91,49.35,24.65,50.17Z"/><path class="cls-6" d="M53.61,65.1c1.94,3.85,3.4,6.81,4.32,8.68,1.31,2.68,3.08,5.11,4.48,7.74.69,1.29,1.32,2.53,2.69,3,2.05.75,4.17-.72,4.26-.79a5.34,5.34,0,0,0,1.83-2.33c-1.58-2-3-3.58-4.07-4.73A80.11,80.11,0,0,0,55.76,66.62C54.86,66,54.11,65.44,53.61,65.1Z"/></g></svg>