<svg xmlns="http://www.w3.org/2000/svg" viewBox="0 0 192.13 234"><defs><style>.cls-1{fill:#de4f49;}.cls-2{fill:#e96f64;}.cls-3{fill:#9b765e;}.cls-4{fill:#daf1f9;}.cls-5{fill:#f9ccb1;}.cls-6{fill:#efbba0;}.cls-7{fill:#231f20;}.cls-11,.cls-13,.cls-8{fill:none;}.cls-8{stroke:#231f20;}.cls-11,.cls-8{stroke-miterlimit:10;}.cls-9{fill:#f8a381;}.cls-10{fill:#d89450;}.cls-11{stroke:#b07a3f;}.cls-12{fill:#eebfa8;}.cls-14{fill:#97d8e1;}</style></defs><g id="Layer_1" data-name="Layer 1"><path class="cls-1" d="M158.11,13.21a3.42,3.42,0,0,0-.65-1.26,3.65,3.65,0,0,0-1.72-1.14,3.39,3.39,0,0,0-1.69-.1,3.26,3.26,0,0,0-1.75,1,3.34,3.34,0,0,0-.83,2,6,6,0,0,0,1.12,3.77,29.22,29.22,0,0,0,3.73,5.11,22.93,22.93,0,0,0,5.29-3.37,9,9,0,0,0,1.46-1.37,4.53,4.53,0,0,0,1.19-2.17,3.34,3.34,0,0,0-.33-2.09,3.39,3.39,0,0,0-1.32-1.35,3.48,3.48,0,0,0-1.84-.45A3.73,3.73,0,0,0,158.11,13.21Z"/><path class="cls-1" d="M170.47,35.72a3.46,3.46,0,0,0-1.07-.95,3.57,3.57,0,0,0-2-.45,3.37,3.37,0,0,0-1.62.51,3.2,3.2,0,0,0-1.28,1.55,3.47,3.47,0,0,0-.08,2.15,6.06,6.06,0,0,0,2.39,3.13,29.86,29.86,0,0,0,5.3,3.45,22.67,22.67,0,0,0,3.75-5,8.85,8.85,0,0,0,.88-1.8,4.5,4.5,0,0,0,.34-2.45,3.28,3.28,0,0,0-2.76-2.63,3.51,3.51,0,0,0-1.88.23A3.74,3.74,0,0,0,170.47,35.72Z"/></g><g id="Layer_5" data-name="Layer 5"><path class="cls-2" d="M178.51,104.84a4.39,4.39,0,0,0-.84,1.55,4.44,4.44,0,0,0,0,2.54,4.07,4.07,0,0,0,1.07,1.81,4,4,0,0,0,2.23,1.11,4.17,4.17,0,0,0,2.61-.52c1.42-.72,2.22-2,3.1-3.76a36.66,36.66,0,0,0,2.68-7.36,28.17,28.17,0,0,0-7.13-3.1,11.17,11.17,0,0,0-2.42-.56,5.55,5.55,0,0,0-3.05.28,4.24,4.24,0,0,0-1.92,1.78,4.27,4.27,0,0,0,.34,4.49A4.63,4.63,0,0,0,178.51,104.84Z"/><rect class="cls-3" x="148" y="110.29" width="34.03" height="2.43" transform="translate(-30.76 74.96) rotate(-23.48)"/></g><g id="arrow"><path class="cls-3" d="M138.18,102c.4,1,2.86,3.07,3,4.46a43.67,43.67,0,0,1-.32,8.43,15.55,15.55,0,0,1,3.08.11,5.24,5.24,0,0,1,3.86,1.93c1.6,2.06,1.1,5.93-1.45,9.28.73.9,1.79,2.22,3,3.84,4.45,5.78,5.76,8.24,6.23,9.14a17.93,17.93,0,0,1,2.39,9.15,99.22,99.22,0,0,1-.4,12.72c-.17,1.72-.25,2.82-.4,5-.2,2.94-.18,3.45,0,4.1a6.84,6.84,0,0,0,4,4.38c3.36,1.29,6.9-.83,8.61-3.05.56-.72,2.59-3.36,1.46-6.1a5.42,5.42,0,0,0-4.77-3.18,5.62,5.62,0,0,0-3.58,1.2,22.55,22.55,0,0,1,.26-5.31,42.79,42.79,0,0,1,1.6-5.56,24.72,24.72,0,0,0,.39-8.48c-.86-7.8-6.6-13.2-9.67-16.3s-3.37-2.52-4.9-4.64c-3.91-5.4-4.06-12.15-4.11-14.58-.1-4.37.74-5.61-.13-9.14-.72-2.89-3.88-8.79-4.89-10.2a58.52,58.52,0,0,1-1.3,8.3A12.73,12.73,0,0,1,138.18,102Z"/></g><g id="wing"><path class="cls-4" d="M50.48,121.87a73.31,73.31,0,0,0-8.6-3.44c-5.6-1.83-12-4.32-19.3-2.61-3.36.79-7.89,1.3-9.4,4.7-1.27,2.87.28,6,.53,6.52a9.16,9.16,0,0,0,5.87,4.56,19.11,19.11,0,0,0-9.4,2,12.78,12.78,0,0,0-5.47,4.57c-.72,1.12-2.6,4.08-1.44,6.78,1,2.35,3.74,3.15,4.57,3.39,4.81,1.41,9.33-1.46,9.65-.78.22.47-2.17,1.55-4.44,4.43-1.31,1.67-2.79,3.55-2.47,5.74.38,2.71,3.24,4.22,3.91,4.57,4.61,2.42,9.77-.29,10.43-.66a16.52,16.52,0,0,0-1,3.79c-.3,2-.5,3.37.13,4.69,1.15,2.43,4.39,3.38,6.78,3.26a8.12,8.12,0,0,0,3.79-1.17,4.58,4.58,0,0,0-.13,2.87,5.58,5.58,0,0,0,3.39,3.26c4.48,2,9.78-2.08,10.16-2.38a34.34,34.34,0,0,1,2.08-6.7,33.36,33.36,0,0,1,7.35-10.72c1.7-1.63,1.56-1.11,5.24-4.27,3.5-3,5.88-5.37,6.51-6,3.94-4,5.94-6,7.32-9.06a20.41,20.41,0,0,0,1.68-6c-1.19-.08-2.85-.21-4.81-.5a42.41,42.41,0,0,1-13.59-3.79A33.15,33.15,0,0,1,50.48,121.87Z"/></g><g id="torso"><path class="cls-5" d="M76.84,125.73c-.73,2.11,1.72,4.12,1.3,8.61-.25,2.69-1.4,5.08-5,9.39A79.33,79.33,0,0,1,59.1,157a27,27,0,0,0,4.17,7.3,27.83,27.83,0,0,0,5.22,5,76.21,76.21,0,0,0,20.87,11,66.13,66.13,0,0,0,21.39,2.87,27.11,27.11,0,0,0,3.13-3.92c7-10.69,4.41-23.49,3.13-29.74a57.59,57.59,0,0,0-13.3-26.34C83.9,121,77.79,123,76.84,125.73Z"/></g><g id="head_shadow" data-name="head shadow"><path class="cls-6" d="M78,135.14a65.54,65.54,0,0,0,15.32.43c11.29-.91,14-5.1,15.32-6l-6-10.72-23.48,3.26a44.39,44.39,0,0,1-.65,10.7C78.38,133.64,78.21,134.4,78,135.14Z"/><path class="cls-6" d="M117,149.47a76.84,76.84,0,0,1-8.53,3.49c-5.09,1.72-9,3-14.09,2.78a26.94,26.94,0,0,1-6.26-1l.45-2.1c.75.1,1.75.21,2.94.27a41.52,41.52,0,0,0,7.22-.26A50.14,50.14,0,0,0,109.36,150a72.7,72.7,0,0,0,7.14-2.81Z"/></g><g id="head-2" data-name="head"><path class="cls-5" d="M43,113.09a55.11,55.11,0,0,0,7.49,8.78,37.73,37.73,0,0,0,9.3,7,36,36,0,0,0,9.56,3.1,67.47,67.47,0,0,0,19.9,1c5.81-.62,22-2.54,36.18-15.25,1.78-1.59,11.29-9.59,14.73-20.16.84-2.58,2-6.27.77-10.33-.7-2.37-1.78-3.42-3.61-7A63,63,0,0,1,134,72a57.23,57.23,0,0,1-3-9.82c-.63-3.52-.21-4-.86-7.75a43.47,43.47,0,0,0-2.24-8.27c-3.44-8.62-16.21-12.64-19-13.44-13.47-3.89-25.18.66-30.15,2.59-6.21,2.41-10.16,5.23-15.16,8.78C52.24,52.16,42.26,59.27,37.9,71.66c-1.41,4-3.84,13.17-.17,26A6.52,6.52,0,0,0,29,99.57c-1.2,1.72-1.11,3.51-1,5.34.09,2.13.22,5.26,2.59,7.92.47.54,4,4.35,8.27,3.27A7.7,7.7,0,0,0,43,113.09Z"/></g><g id="eyes"><ellipse class="cls-7" cx="75.55" cy="91.01" rx="2.61" ry="4.37" transform="translate(-26.16 30.63) rotate(-19.61)"/><path class="cls-7" d="M91.81,109.36a33.8,33.8,0,0,0,27.07-3.19.6.6,0,0,0-.61-1,32.59,32.59,0,0,1-26.14,3.07c-.74-.23-1.06.93-.32,1.16Z"/><path class="cls-8" d="M101.08,89.66A6.6,6.6,0,0,0,104,92.27c2.08.93,4,.24,4.17.79.16.39-.58,1.32-4.43,3.65"/><ellipse class="cls-7" cx="118.58" cy="75.68" rx="2.61" ry="4.37" transform="translate(-18.52 44.18) rotate(-19.61)"/><path class="cls-7" d="M61.7,83.85a15.32,15.32,0,0,1,12.66-7.06c1,0,1-1.53,0-1.5a16.8,16.8,0,0,0-14,7.81c-.53.81.77,1.56,1.29.75Z"/><path class="cls-7" d="M110.26,64.51c3-2.54,7.15-4.14,11-2.49.87.37,1.64-.92.75-1.3-4.54-1.93-9.19-.3-12.83,2.73-.75.61.32,1.67,1.06,1.06Z"/><ellipse class="cls-9" cx="64.3" cy="105.65" rx="11.15" ry="7.94" transform="translate(-28.34 23.71) rotate(-17.18)"/><path class="cls-9" d="M136.05,79c1.5,3.44,4.37,5.63.7,6.65-4.7,1.3-9.31.73-10.8-2.71s.93-7.77,5.4-9.74C134,72,134.56,75.52,136.05,79Z"/></g><g id="hair"><path class="cls-10" d="M129.84,56.1c1.93-2.21,8.56-4.52,3.78-18.45C125.49,14,109.5,8,97.1,6,88.56,4.62,75.75,2.7,60.23,7.73A70.52,70.52,0,0,0,33.1,24.08a14.27,14.27,0,0,0-.7-6.95c-1.6-4.33-5.66-8.41-7.65-7.66-2.78,1-1.23,11.4-.7,14.61a11.27,11.27,0,0,0-5.91-.35c-.54.12-5.83,1.18-6.26,3.83-.34,2.1,2.38,5,7,6.26C17.21,36,15.59,38.23,14,40.43a62.67,62.67,0,0,0-4.18,9.74c-2.43,7.33-7.3,22-.69,35.48,4.9,10,14,15,18.8,17.14A6.31,6.31,0,0,1,29,99.57a6.83,6.83,0,0,1,4.3-2.76c1.7-.27,2.28.41,4.48.86a13.81,13.81,0,0,0,8.58-.89c.2-.1,4.93-2.41,4.7-4.7-.33-3.24-10.4-4.6-13.3-5q1.95-4.44,3.91-8.87a32.31,32.31,0,0,0,6.52-2.35c10.39-5.07,15.31-14.45,17.22-18.78,1.18-.1,2.9-.26,5-.53,1.88-.24,11.58-1.5,18.53-4.17,3.59-1.38,11.78-5.19,19.82-15.65l2-2.91a26,26,0,0,1,11.73,7.41C129.14,49,129.53,55.38,129.84,56.1Z"/></g><g id="Layer_19" data-name="Layer 19"><path class="cls-11" d="M41.62,78.26a39.71,39.71,0,0,0,5.68-9.63,28.2,28.2,0,0,0,2.61-12,24.11,24.11,0,0,0-.53-4.43"/><path class="cls-11" d="M65.36,57.13A30.2,30.2,0,0,0,70,48a30.86,30.86,0,0,0,.79-14.87"/><path class="cls-11" d="M110.69,33.87A13.31,13.31,0,0,0,113.56,29a13.49,13.49,0,0,0,.26-7.31"/></g><g id="short_arm" data-name="short arm"><path class="cls-12" d="M118.14,156a14.2,14.2,0,0,0,5.13-2.3,15.4,15.4,0,0,0,5.74-9.13,17.78,17.78,0,0,0-1.56-12l-14,5.69a62.41,62.41,0,0,1,2.55,7A61.33,61.33,0,0,1,118.14,156Z"/></g><g id="long_arm" data-name="long arm"><path class="cls-5" d="M88.58,152.6a42,42,0,0,0,8.34.26c4.86-.32,9.13-1.45,15.92-4.17s13.74-5.55,22.17-11.22c2.29-1.54,10.09-6.91,13.57-14.61.69-1.53,1.39-3.56.52-5.21-1.36-2.56-5.66-2.6-6.79-2.61-3.07,0-5.41,1-9.13,2.87-6.48,3.34-9.25,5.42-14.08,8.09a96.41,96.41,0,0,1-9.75,4.65"/></g><g id="bottom_half_of_body" data-name="bottom half of body"><path class="cls-5" d="M59.1,157a30.26,30.26,0,0,0-6,6.52,32.35,32.35,0,0,0-3.92,8.09,48.2,48.2,0,0,0-1.82,7.56c-1.47,7.87-.66,8.35-1.83,12-.64,2-2.17,4.47-5.22,9.39s-3.89,5.7-6.52,10.18c-2.16,3.69-3.24,5.53-3.91,7.56-.5,1.5-3.66,10.19-.52,12.79,1.57,1.3,4.28.68,8.09-.79A73.23,73.23,0,0,0,59.1,217c0,.94-.08,2.39-.26,4.17-.25,2.36-.51,3.14,0,3.65,1,1,3.79-.23,4.43-.52,2.27-1,2.68-2.09,4.44-3.13,1.93-1.14,3.72-1.19,6.26-1.3,6.39-.29,10-.45,12-.78,8.43-1.4,13.61-9.64,14.61-11.22a27,27,0,0,0,3.91-17,12.33,12.33,0,0,0,3.65-2.87,12.46,12.46,0,0,0,2.61-5,63.94,63.94,0,0,1-7.27-.18,67.76,67.76,0,0,1-22.35-6c-6-2.73-10.87-5-15.62-10.11A36.39,36.39,0,0,1,59.1,157Z"/></g><g id="long_leg" data-name="long leg"><path class="cls-13" d="M47.69,177.46A22.36,22.36,0,0,1,53.1,175a21.78,21.78,0,0,1,8.87-.78,20.6,20.6,0,0,1,9.91,4.17,16,16,0,0,1,5.74,7c2,5.34-.42,10.5-1.83,13.57-2.26,4.92-5.36,7.83-11.48,13.56a102.29,102.29,0,0,1-8.32,7c-2,1.52-6,3.95-14,8.8a26.48,26.48,0,0,1-7.53,3c-3.05.7-4.28.38-5.06-.24s-1.19-1.61-1.35-3.37a18.26,18.26,0,0,1,1.87-9.42,104.33,104.33,0,0,1,6.76-12.1c4.46-6.81,5.9-8,7.59-12.16a34.68,34.68,0,0,0,2.13-7.62C46.8,183.46,47.25,180.46,47.69,177.46Z"/></g><g id="short_leg" data-name="short leg"><path class="cls-13" d="M104.49,191a11.3,11.3,0,0,1-3.13,3.39A35.16,35.16,0,0,1,98,196.17a38.18,38.18,0,0,0-3.66,2.35,22.81,22.81,0,0,1-7.82,3.13,22,22,0,0,1-11.58-.86,45.72,45.72,0,0,1-3.75,5.09,62.83,62.83,0,0,1-6.85,6.72c-1.27,1.14-3,2.68-5.21,4.44-.09,2.34-.27,4.21-.42,5.52s-.26,1.87.16,2.3c1,1.09,4.17-.39,4.43-.52,2.15-1,2-1.94,4.44-3.13a13.1,13.1,0,0,1,3.36-1.1,13.63,13.63,0,0,1,2.9-.2s2.63,0,8-.39a26.22,26.22,0,0,0,6.44-1c4.84-1.57,7.82-5,9.47-6.85a27.34,27.34,0,0,0,6.77-17.06Z"/></g><g id="underwear"><path class="cls-14" d="M59.1,157a30.29,30.29,0,0,0-3.23,3,33.13,33.13,0,0,0-5.79,9.15,35,35,0,0,0-2.39,8.24,22.68,22.68,0,0,1,4.88-2.26,22,22,0,0,1,6.87-1.09,21.19,21.19,0,0,1,8,1.7,20.53,20.53,0,0,1,7.39,5.28,13.45,13.45,0,0,1,2.41,3.59,14.28,14.28,0,0,1,.63,8.63,19.64,19.64,0,0,1-3,7.48,21.32,21.32,0,0,0,5.3,1.17c4.89.44,8.6-.92,11.69-2.09a36.07,36.07,0,0,0,12.66-8.13,34.87,34.87,0,0,0,6.19-8.61,61.07,61.07,0,0,1-19.41-2.46,70.33,70.33,0,0,1-20.76-9.86,31.61,31.61,0,0,1-5.07-4A29.5,29.5,0,0,1,59.1,157Z"/></g></svg>