<svg xmlns="http://www.w3.org/2000/svg" viewBox="0 0 321.56 342.56"><defs><style>.cls-1{fill:#de4f49;}.cls-2{fill:#fcbc8a;}.cls-3{fill:#f0534a;}.cls-4{fill:#c2403f;}.cls-5{fill:none;stroke:#231f20;stroke-miterlimit:10;}.cls-6{font-size:14px;fill:#fff;font-family:Poppins-Light, Poppins;font-weight:300;}</style></defs><g id="envelope"><rect class="cls-1" x="17.63" y="74.45" width="178.43" height="118.74" transform="translate(-17.55 16.13) rotate(-7.98)"/></g><g id="paper"><polygon class="cls-2" points="34.84 197.32 12.9 34.02 169.52 10.81 192.36 172.71 34.84 197.32"/></g><g id="Layer_23" data-name="Layer 23"><path class="cls-1" d="M18.42,145.64a63.07,63.07,0,0,1,38.95-1c22.52,6.8,33.39,24.22,35.85,28.4L26.74,205Q22.59,175.32,18.42,145.64Z"/><path class="cls-1" d="M194.85,120.5a63,63,0,0,0-37.68,9.91c-19.71,12.84-25.27,32.6-26.46,37.3l72.77,12.1Q199.16,150.15,194.85,120.5Z"/></g><g id="triangle_of_envelope" data-name="triangle of envelope"><polyline class="cls-3" points="26.74 205 106.85 133.82 203.45 180.22"/><path class="cls-4" d="M107.48,131.06a6.33,6.33,0,0,0-5.43-2.75,6,6,0,0,0-3,.8,5.94,5.94,0,0,0-2.43,2.7,6.25,6.25,0,0,0-.29,3.88c.47,2.27,1.9,3.88,4.08,5.82a53.36,53.36,0,0,0,9.29,6.61,40.84,40.84,0,0,0,7.14-8.79,17,17,0,0,0,1.73-3.18,8.2,8.2,0,0,0,.79-4.39,6.1,6.1,0,0,0-8.2-4.67A6.73,6.73,0,0,0,107.48,131.06Z"/><line class="cls-5" x1="41.08" y1="54.99" x2="150.43" y2="39.21"/><line class="cls-5" x1="47.88" y1="102.08" x2="157.22" y2="86.29"/><line class="cls-5" x1="51.15" y1="124.71" x2="160.49" y2="108.92"/><line class="cls-5" x1="43.88" y1="79.08" x2="153.22" y2="63.3"/><text class="cls-6" transform="matrix(0.99, -0.14, 0.14, 0.99, 67.07, 73.85)">I</text><text class="cls-6" transform="matrix(0.99, -0.14, 0.14, 0.99, 70.26, 73.39)"> </text><text class="cls-6" transform="translate(74.03 72.85) rotate(-8.21)">l</text><text class="cls-6" transform="translate(77.23 72.38) rotate(-8.21)">o</text><text class="cls-6" transform="translate(86.12 71.1) rotate(-8.21)">v</text><text class="cls-6" transform="matrix(0.99, -0.14, 0.14, 0.99, 93.69, 70.01)">e</text><text class="cls-6" transform="matrix(0.99, -0.14, 0.14, 0.99, 102.32, 68.76)"> </text><text class="cls-6" transform="translate(106.12 68.21) rotate(-8.21)">y</text><text class="cls-6" transform="matrix(0.99, -0.14, 0.14, 0.99, 113.69, 67.12)">o</text><text class="cls-6" transform="matrix(0.99, -0.14, 0.14, 0.99, 122.57, 65.84)">u</text></g></svg>