<svg xmlns="http://www.w3.org/2000/svg" viewBox="0 0 44.87 34.78"><defs><style>.cls-1{fill:#aa5767;}</style></defs><g id="muff_of_earphones" data-name="muff of earphones"><path class="cls-1" d="M33.54,1.36,36,14.44a6.41,6.41,0,0,0-1.74-.09A4.49,4.49,0,0,0,31,15.7a3.57,3.57,0,0,0-.72,2.77A3.85,3.85,0,0,0,32.34,21c2,1.08,5.08.57,6.23-1.18a5.82,5.82,0,0,0,.57-3.4,10.38,10.38,0,0,0-.33-2.3c-.39-1.52-.88-3.64-1.49-6.8a6.87,6.87,0,0,1,.93.43A8.2,8.2,0,0,1,40.78,10a12.47,12.47,0,0,1,1.85,3.23,6.13,6.13,0,0,0,.44-2.42,6.79,6.79,0,0,0-1.9-4.27,10.24,10.24,0,0,0-2.42-1.85Z"/></g><g id="music_note" data-name="music note"><path class="cls-1" d="M8.45,12.26c-.55,3.39-1.09,6.79-1.63,10.18A6.29,6.29,0,0,0,5,22.13a3.72,3.72,0,0,0-2.77.71A3.09,3.09,0,0,0,2,26.4c1,1.7,3.5,1.49,4.05,1.45A3.79,3.79,0,0,0,8.55,27a3.36,3.36,0,0,0,.83-2.19,60.6,60.6,0,0,1,1.07-6.61l6,3.09c-.25,2.27-.49,4.54-.74,6.82a4.73,4.73,0,0,0-2-.69,3.33,3.33,0,0,0-2.91.8,2.86,2.86,0,0,0-.38,2.86c.7,1.79,3,2.08,3.4,2.14a5.42,5.42,0,0,0,3.68-.95c.8-1.15,1.75-11,2-13.68Z"/></g></svg>