<svg xmlns="http://www.w3.org/2000/svg" viewBox="0 0 321.56 342.56"><defs><style>.cls-1{fill:#edccb5;}.cls-2{fill:#e3c4ae;}.cls-3{fill:#f8d6bd;}.cls-4{fill:#fbcab6;}.cls-5{fill:#231f20;}.cls-6{fill:#f8a381;}.cls-7{fill:#332924;}.cls-8{fill:none;stroke:#685349;stroke-miterlimit:10;stroke-width:2px;}.cls-9{fill:#fff;}</style></defs><g id="neck"><path class="cls-1" d="M124,196.77c-.49,1.73-.9,8-2.22,12.65a34.42,34.42,0,0,1-4.87,10,47.19,47.19,0,0,1-6.68,8,92.74,92.74,0,0,0,9.52,3.34,107.57,107.57,0,0,0,14.87,3.07,124.17,124.17,0,0,0,24.4,1.05A56.8,56.8,0,0,0,171.83,233a46.45,46.45,0,0,0,9.62-4,69.5,69.5,0,0,1-5.09-6.48A56.66,56.66,0,0,1,170,211,41.36,41.36,0,0,1,167.49,192C132.53,192.36,125.09,192.7,124,196.77Z"/><path class="cls-2" d="M124.14,201.73A44.55,44.55,0,0,0,128,204.5a43,43,0,0,0,5.69,3.16,32.08,32.08,0,0,0,10.57,2.89,31.59,31.59,0,0,0,11.22-1c6-1.65,8.91-3.73,11.13-5.66-.39-3.48-.54-10.72-5.54-15.16-10.09-8.95-30.76-6-35.19,4.8C124.51,197,124.49,199.72,124.14,201.73Z"/></g><g id="head"><path class="cls-3" d="M85.67,126a115,115,0,0,0,4,27.28,86.48,86.48,0,0,0,3.53,10.78c8.9,21.5,27.28,32.69,30.17,34.4,5,3,13.22,9.65,24.84,9.15,6.93-.29,16.6-5.25,26.93-12.23,21.94-14.84,31-35.62,36-47.5,3.48-8.29,9.07-22,9.57-40.6.28-10.51,1.41-52.4-29-72.29-13.87-9.07-32.16-12.17-47.78-8.38C110.75,34.68,85.09,74.89,85.67,126Z"/></g><g id="Layer_1" data-name="Layer 1"><path class="cls-4" d="M166.58,53.34a14.22,14.22,0,0,1,3.54-.85,13.43,13.43,0,0,1,6.92,1,12.34,12.34,0,0,1,5,4.54,82.52,82.52,0,0,1,9.39,17.84,82.84,82.84,0,0,0,12.28,22.91A116.52,116.52,0,0,0,197,68.08c-5.42-14.71-10.13-18-13.12-19.46-1.48-.71-7.76-3.72-12.91-.64A11,11,0,0,0,166.58,53.34Z"/><path class="cls-4" d="M166.5,53a18.05,18.05,0,0,0-4.48-3.8c-1.45-.86-5-3-9.34-2.37A14.28,14.28,0,0,0,148,48.64a31.52,31.52,0,0,0-9.09,7.66,140.55,140.55,0,0,0-8.71,11.08c-6,8.66-9,13-11.93,17.45l-12.87,19.49c-3.89,5.91-6.27,9.57-10.45,14.13A81.39,81.39,0,0,1,87,126a223,223,0,0,1,16.49-36.52A201.14,201.14,0,0,1,120,65c9.71-12.39,16.79-18.49,25.26-21.94,5.14-2.09,9.51-2.67,13.53-1.2,1.25.45,5.66,2.06,7.27,6.38A9.76,9.76,0,0,1,166.5,53Z"/><path class="cls-5" d="M176.5,96.94a44.71,44.71,0,0,1,36.57,12.14c1.74,1.67,4.4-1,2.66-2.65A48.31,48.31,0,0,0,176.5,93.19c-2.37.28-2.39,4,0,3.75Z"/><path class="cls-5" d="M134.05,89.22a48.35,48.35,0,0,0-41,6.19c-2,1.34-.11,4.59,1.9,3.23a44.7,44.7,0,0,1,38.07-5.8c2.31.69,3.3-2.93,1-3.62Z"/><circle class="cls-6" cx="96.84" cy="134.41" r="12.72"/><circle class="cls-6" cx="198.05" cy="142.23" r="12.72"/><path class="cls-7" d="M172.21,197.34c-3.2,2.22,10.48,76.18,10.48,87.69,0,15.35-.35,27.08,0,27.16s6.71-9.55,10.84-40.3a76.6,76.6,0,0,0,1.47,22.8c1.84,8.38,5,22.82,17.48,32.76a43.3,43.3,0,0,0,16.43,8.05,46.68,46.68,0,0,1-10-19.5c-1.89-8.22-.58-13.86.13-25.46a214.78,214.78,0,0,0-.2-28.56,60,60,0,0,0,27.35,60,138.16,138.16,0,0,1-7.91-48,30.43,30.43,0,0,0,8.84,21A29.8,29.8,0,0,0,263.5,303c-2.3-1.22-11.41-6.42-14.7-17.28-.94-3.09-.33-4.55-.93-11.59a139,139,0,0,0-2.73-17.81c-2.92-14.89-2-43.72-2.14-66.41,0-5.43-1.35-26.93-4-69.93-1.12-18.32-1.84-28.82-6.08-43-3.53-11.75-7.88-25.64-20.47-37.45A66,66,0,0,0,188,25.2a92,92,0,0,0-11.46-6A87.58,87.58,0,0,0,156.64,13c-15.92-2.46-30.55,6.26-38.81,11.18a90.18,90.18,0,0,0-35.55,41c-.86,2-1.67,4.41-3.28,9.19a425.48,425.48,0,0,0-16.7,63c-3.76,21.15-1.72,20.7-6.32,45.8-1.66,9-3.06,15.33-5.2,28.45-2,12-3.16,19.43-4.06,29.24-2,22.21-2.91,33.55,3,45.21a47.41,47.41,0,0,0,12.43,15.3c-5.52-16.53-6.9-20.6-6.92-20.59s2,12.71,10.75,22.21c6.52,7.1,14.9,10.37,21.75,12A60.69,60.69,0,0,1,78,298.51a61.34,61.34,0,0,1-4.1-26.71,44,44,0,0,0,2.29,14.33c8.89,26.29,40.47,34.64,44.94,35.76a49.67,49.67,0,0,1-11-10.51,50.47,50.47,0,0,1-9.69-23.22,43.45,43.45,0,0,0,8.92,16.9,44,44,0,0,0,20.31,13.27c-6.79-6.19-9.64-12.09-11-16.17-2.63-7.93-.72-12.26-1.75-28.08-.66-10.12-1.46-8.49-2-17.27-.24-4.1-.41-10.32,1.69-32.9.51-5.49,2.91-17.44,3.91-26.16-5.1-3.45-31.6-30-32.22-56.47a159,159,0,0,1,.08-16.85c1.06-1.75,2.56-4.2,4.38-7.12,4-6.45,8.81-13.84,16.86-25.64,9.52-14,7.73-10.81,15.62-22.46,3-4.37,10.27-15.2,19.65-23.66a23.67,23.67,0,0,1,11.82-5.93c2-.33,4.36-.67,6.42.51,3.32,1.92,4.7,7.13,3.47,13.19a10.83,10.83,0,0,1,3.65-2.5,11.14,11.14,0,0,1,4.9-.8c3.46.29,6,2.88,8.25,5.57,5.36,6.5,8.31,13.23,10.68,19.12,3.52,8.72,2.92,8.49,5.49,14.65,2.65,6.32,5.2,12.41,10,19.49C211.13,111,216.08,130,225.51,138c3.65,3.09,7.6-5.65,7.59-5.63s-3.64-2.65-19.65-14.54c0,2.28-.16,5.41-.44,9.12C211.2,151.07,203.73,175.57,172.21,197.34Z"/><path class="cls-7" d="M166.64,53.32c-1.11-2.37-3.14-5.75-6.8-7.47-10-4.68-21.57,7.78-24.7,10-1.93,1.39,4.18-17.19,14.12-21,11.65-4.52,22.85,2.1,24.63,3.19Z"/><path class="cls-8" d="M121.17,46.1a80.37,80.37,0,0,0-22,28.36"/><path class="cls-8" d="M194.16,41.65A46.17,46.17,0,0,1,201.6,49,47.53,47.53,0,0,1,210.72,68"/><path class="cls-8" d="M208.79,86.77a81,81,0,0,0,23.43,36.69"/><path class="cls-8" d="M100.52,87.87q-3.67,6.25-7.36,12.51"/><ellipse class="cls-5" cx="122.26" cy="116.58" rx="9.1" ry="5.57" transform="translate(-4.41 228.35) rotate(-85.06)"/><ellipse class="cls-5" cx="181.46" cy="121.69" rx="9.1" ry="5.57" transform="translate(44.59 292) rotate(-85.06)"/><path class="cls-5" d="M131.38,164.26a30,30,0,0,0,17,8.84,24.45,24.45,0,0,0,20.7-6.64c1.16-1.12-.61-2.89-1.77-1.77a21.83,21.83,0,0,1-19,5.88,27.8,27.8,0,0,1-15.15-8.08c-1.11-1.16-2.88.61-1.76,1.77Z"/><path class="cls-5" d="M151.64,133.33q-.46,7.5-.94,15l1.58-1.21-4.43-1.43c-1.54-.5-2.19,1.92-.67,2.41l4.44,1.43a1.26,1.26,0,0,0,1.58-1.2q.47-7.5.94-15c.1-1.6-2.4-1.6-2.5,0Z"/><path class="cls-5" d="M183.46,113a17.75,17.75,0,0,0,3.67.77,17.45,17.45,0,0,0,4.8-.19,17.11,17.11,0,0,1-3.16,1.15,15.76,15.76,0,0,1-3.56.51,14.54,14.54,0,0,1-2.38-.13Z"/><path class="cls-5" d="M121.92,107.71a17.72,17.72,0,0,1-3.75.12,17.52,17.52,0,0,1-4.69-1,17.23,17.23,0,0,0,6.33,2.79,14.32,14.32,0,0,0,2.37.28C122.09,109.17,122,108.44,121.92,107.71Z"/><path class="cls-9" d="M269.46,33.42c-3.63.5-7.84.95-10.66,3.57s-3.6,6.82-4.4,10.36H258c-.5-3.63-.95-7.84-3.57-10.66s-6.81-3.6-10.36-4.41V35.9c3.63-.5,7.84-.95,10.66-3.57s3.6-6.82,4.41-10.36h-3.62c.51,3.63,1,7.84,3.58,10.66s6.81,3.6,10.35,4.41c2.35.53,3.35-3.08,1-3.62-2.82-.64-6.65-1.15-8.7-3.44s-2.22-6.15-2.61-9c-.26-1.86-3.23-1.7-3.62,0-.64,2.82-1.15,6.66-3.44,8.7s-6.14,2.22-9,2.61c-1.87.26-1.71,3.23,0,3.62,2.81.64,6.65,1.15,8.7,3.44s2.21,6.14,2.61,9c.25,1.87,3.22,1.71,3.61,0,.64-2.81,1.15-6.65,3.44-8.7s6.15-2.21,9-2.6C272.84,36.71,271.82,33.09,269.46,33.42Z"/><path class="cls-9" d="M32.85,207.17c-4.12.57-8.93,1.06-12.13,4s-4.08,7.73-5,11.78h3.62c-.57-4.12-1.06-8.93-4-12.13s-7.73-4.08-11.78-5v3.62c4.12-.57,8.93-1.06,12.13-4s4.08-7.73,5-11.78H17c.57,4.12,1.06,8.93,4,12.13s7.73,4.08,11.78,5c2.35.53,3.35-3.08,1-3.62-3.36-.76-7.8-1.38-10.19-4.13s-2.55-7-3-10.37c-.26-1.87-3.23-1.71-3.62,0-.76,3.35-1.38,7.8-4.13,10.19s-7,2.55-10.38,3c-1.86.26-1.7,3.23,0,3.62,3.36.76,7.81,1.38,10.2,4.13s2.54,7,3,10.37c.26,1.87,3.23,1.71,3.62,0,.76-3.35,1.38-7.8,4.13-10.19s7.05-2.55,10.37-3C36.22,210.46,35.21,206.85,32.85,207.17Z"/><path class="cls-9" d="M317.42,277.66c-4.76.65-10.51,1.13-14.23,4.56s-4.69,9.13-5.74,13.8h1.45c-.65-4.75-1.13-10.51-4.57-14.23s-9.12-4.68-13.8-5.74v1.45c4.76-.65,10.52-1.13,14.23-4.56s4.69-9.13,5.74-13.8h-1.44c.65,4.75,1.12,10.51,4.56,14.23s9.12,4.68,13.8,5.74c.94.21,1.34-1.24.4-1.45-4.39-1-10-1.85-13.14-5.35s-3.57-9.14-4.18-13.57c-.1-.75-1.29-.68-1.44,0-1,4.38-1.86,9.95-5.36,13.14s-9.14,3.57-13.56,4.17c-.75.11-.69,1.3,0,1.45,4.38,1,9.95,1.85,13.13,5.36s3.57,9.14,4.18,13.56c.1.75,1.29.68,1.45,0,1-4.38,1.85-9.95,5.35-13.14s9.14-3.57,13.57-4.17C318.77,279,318.36,277.53,317.42,277.66Z"/></g></svg>