<svg xmlns="http://www.w3.org/2000/svg" viewBox="0 0 108.5 95.48"><defs><style>.cls-1{fill:#55b3d0;}.cls-2{fill:#90d4e1;}.cls-3{font-size:12px;fill:#dc5648;font-family:Helvetica-Bold, Helvetica;font-weight:700;}</style></defs><g id="Layer_19" data-name="Layer 19"><path class="cls-1" d="M32.17,12.51a24.88,24.88,0,0,0-8.48,2.68,24.56,24.56,0,0,0-7.58,5.92c-4.43,5.35-4.74,11.59-4.95,15.62-.51,10.06,3.34,17.64,5.35,21.51C20.75,66.43,26.2,71.32,30.27,75A74.89,74.89,0,0,0,43.4,84.38l13.67-3.25C49.17,41.31,39.28,12.16,32.17,12.51Z"/><path class="cls-2" d="M59.63,26.94A26.11,26.11,0,0,0,51.37,16.4c-1.79-1.33-10-7.44-19.82-4.52C22.61,14.53,18.91,22.69,18.1,24.67c-1.9,4.6-1.68,8.59-1.41,12.77a51.2,51.2,0,0,0,5.89,20c8,15.17,21.61,23,27.39,25.92a79.69,79.69,0,0,0,15.08-4.81c7-3,15.64-6.77,22.69-15.3C91,59.36,98.29,50.52,97.29,38.57c-.18-2.15-1.08-12.84-9.75-18.56a19.57,19.57,0,0,0-12.11-3.23C65.54,17.54,60.23,26,59.63,26.94Z"/><text class="cls-3" transform="translate(40.87 45.41) rotate(6.16)">SOUL<tspan x="-0.33" y="14.4">MATE</tspan></text></g></svg>