<svg xmlns="http://www.w3.org/2000/svg" viewBox="0 0 108.5 95.48"><defs><style>.cls-1{fill:#70af7d;}.cls-2{fill:#91cea1;}.cls-3{font-size:12px;fill:#dc5648;font-family:Helvetica-Bold, Helvetica;font-weight:700;}</style></defs><g id="Layer_19" data-name="Layer 19"><path class="cls-1" d="M77.5,12.9a25,25,0,0,1,8.34,3,24.47,24.47,0,0,1,7.33,6.25C97.35,27.73,97.39,34,97.42,38c.07,10.07-4.11,17.48-6.28,21.25-4.6,8-10.26,12.64-14.48,16.1a74.29,74.29,0,0,1-13.53,8.84L49.62,80.36C59.25,40.93,70.41,12.24,77.5,12.9Z"/><path class="cls-2" d="M49.43,26.11A26.12,26.12,0,0,1,58.14,16c1.85-1.25,10.3-7,20-3.65C87,15.34,90.29,23.65,91,25.66c1.69,4.68,1.3,8.66.84,12.83A51,51,0,0,1,85.1,58.25c-8.66,14.8-22.59,22-28.5,24.69a79.94,79.94,0,0,1-14.85-5.46c-6.9-3.36-15.33-7.45-22-16.28-3.08-4.07-10-13.22-8.47-25.11C11.57,34,12.93,23.31,21.85,18a19.53,19.53,0,0,1,12.23-2.69C43.93,16.47,48.87,25.11,49.43,26.11Z"/><text class="cls-3" transform="translate(42.96 44.28) rotate(-5.24)">I’M<tspan x="-13" y="14.4">YOURS</tspan></text></g></svg>