<svg xmlns="http://www.w3.org/2000/svg" viewBox="0 0 145.17 154.72"><defs><style>.cls-1{fill:#934a59;}.cls-2{fill:#aa5767;}.cls-3{fill:#dc9692;}</style></defs><g id="top_of_headphones" data-name="top of headphones"><path class="cls-1" d="M112.25,45.69a85.44,85.44,0,0,0-4.94-11.17,64.76,64.76,0,0,0-8.8-13.28A55.48,55.48,0,0,0,80.59,7.93a55,55,0,0,0-20.37-5.2A54.88,54.88,0,0,0,39.15,6.18a50.51,50.51,0,0,0-15.26,8.6A51.14,51.14,0,0,0,9.82,33.84,60.13,60.13,0,0,0,4.69,58a61.73,61.73,0,0,0,5.48,25.63l2.95-5.24c-.53-1.69-1.18-4-1.77-6.8A74.29,74.29,0,0,1,9.82,56.86,49.37,49.37,0,0,1,16.67,31,47.79,47.79,0,0,1,35.41,13.63,49.6,49.6,0,0,1,59.54,7.7a47.4,47.4,0,0,1,17.95,4.19A54.85,54.85,0,0,1,95.94,25.23a56.32,56.32,0,0,1,12.63,23.16Z"/><path class="cls-1" d="M43.25,114.07c1.3,1.9-.33,4.16-2.12,5-2.24,1.07-4.9,1-7.31,1.36A34.38,34.38,0,0,0,20,125.28c-4,2.57-7.88,6.48-8.82,11.32-.84,4.35,1,9,5.3,10.72,4.62,1.8,10-.2,14.33-1.87,5-1.93,9.87-4.33,14.91-6.24a53.06,53.06,0,0,1,8-2.39c2.64-.54,5.36-.76,8-1.5a14.17,14.17,0,0,0,6.06-3.3c1.38-1.35,3.16-3.87,2.13-5.87-1.15-2.24-4.58-1.63-6.35-.65a9.61,9.61,0,0,0-4.41,6.25c-.74,3-.49,6.08-1,9.09a8.77,8.77,0,0,1-1.49,4c-.72.93-2,1.9-3.23,1.24l.45,1.71c1.33-2.27,4.27-2.41,6.62-2.2,2.8.25,5.55.84,8.32,0a12.49,12.49,0,0,0,8.78-9.8l-2.09.56c2.09,2.63,6.76,2.25,8.18-.88.73-1.61.37-3.82-1.42-4.53a2.74,2.74,0,0,0-3.68,1.68,1.28,1.28,0,0,0,.87,1.54c3.16,1,6-1.3,7.58-3.88.23-.4.43-1,.94-1s.83.51,1.1.74a8.51,8.51,0,0,0,2.64,1.9,2.72,2.72,0,0,0,3-.76c1-1.15.53-2.63,1.1-3.92s2.1-1.4,3.2-1.63a15.19,15.19,0,0,0,4-1.18A8.15,8.15,0,0,0,107,116a1.26,1.26,0,0,0-1.84-.75c-2.65,1.69-2.32,5.12-1.87,7.83.54,3.2,2.62,5.78,6.11,5.54s6.58-2.5,9.47-4.26c3.3-2,6.67-4.1,10.44-5.08s7.85-.83,11.12,1.46c1.32.92,2.57-1.25,1.26-2.16-7-4.87-15.67-1.42-22.17,2.45-1.92,1.15-3.81,2.37-5.76,3.47-1.5.85-3.28,1.77-5.07,1.63-2.21-.17-2.77-2.23-3-4.09-.2-1.38-.61-3.75.77-4.63l-1.83-.75a5.64,5.64,0,0,1-1.69,4.72c-1.24,1.2-2.85,1.45-4.47,1.79a8.52,8.52,0,0,0-3.84,1.54c-1.34,1.14-1.33,2.55-1.62,4.14s-1.34.17-2-.42a5.35,5.35,0,0,0-3-1.66c-1.75-.1-2.51,1.28-3.33,2.56-1,1.5-2.66,3-4.56,2.41l.87,1.54c0-.06.32-.07.35,0a.93.93,0,0,1,.17.9,1.85,1.85,0,0,1-1.22,1.28,2.63,2.63,0,0,1-3-.86,1.25,1.25,0,0,0-2.08.55,9.92,9.92,0,0,1-9.68,8.39c-2.72,0-5.4-.82-8.13-.45a7.41,7.41,0,0,0-5.66,3.41,1.27,1.27,0,0,0,.45,1.71,4.64,4.64,0,0,0,5.22-.64,9.26,9.26,0,0,0,3.09-5.66c.9-4.39-.39-10.8,3.71-13.86a4.22,4.22,0,0,1,2.83-.93c1.46.13,0,2-.48,2.57A11.13,11.13,0,0,1,60.82,133c-2.47.67-5,.9-7.53,1.4a48.69,48.69,0,0,0-7.19,2c-4.8,1.73-9.38,4-14.1,5.89-4.05,1.65-9.12,4-13.6,3-4.8-1.07-5.85-6.45-4-10.43,1.92-4.2,6-7.23,10-9.15a33.43,33.43,0,0,1,7.31-2.38c2.54-.53,5.13-.61,7.67-1.11a8.49,8.49,0,0,0,5.89-3.57,5.36,5.36,0,0,0,.14-5.84c-.9-1.32-3.07-.07-2.16,1.26Z"/></g><g id="muff_of_earphones" data-name="muff of earphones"><path class="cls-2" d="M102.47,44c1.3-.38,6-1.19,8.81-.53a13.69,13.69,0,0,1,7,4.42,24.43,24.43,0,0,1,6.3,19.75c-.46,3.42-.68,7.42-3.91,10.26-2.7,2.37-11.43,5.7-13,5.75-.37-2.65,3.2-7.51,2.46-11.65-.6-3.38-2.81-7.51-3.91-12.17C105.31,56,104.48,49.91,102.47,44Z"/><path class="cls-2" d="M18.26,74.5c-.67.43-5.14,3.3-6.17,4.17a17.25,17.25,0,0,0-4.56,5.16c-.34.72-1.21,2.84-.06,7.88C8,94,10.29,104.06,19.25,109.58c4,2.48,6.71,2.38,7.33,2.35a11.24,11.24,0,0,0,6.56-2.79c-1.1-1.51-2.67-3.74-4.44-6.52-2.47-3.89-4.14-7-6.6-11.53-1.8-3.33-3.19-6-4.23-8.09C16.58,80.49,19.06,76.11,18.26,74.5Z"/></g><g id="headphones"><path class="cls-3" d="M14.55,75.5c-1.08-3-1.61-4.49-1.38-5.68a6.32,6.32,0,0,1,3.19-3.94,6.57,6.57,0,0,1,5.38-.38c1.52.59,2.29,1.85,3.81,4.24a28.45,28.45,0,0,1,2.09,3.9,152.32,152.32,0,0,0,6.94,13.72c2.31,4.19,5.76,10.44,8.81,13.56a12.49,12.49,0,0,1,1.82,2.37,9,9,0,0,1,1.58,5,6.72,6.72,0,0,1-2.49,5.24,6.46,6.46,0,0,1-5.2,1,7.22,7.22,0,0,1-3.76-2.58C25,99.47,15.67,78.39,15.67,78.39S15.21,77.34,14.55,75.5Z"/><path class="cls-3" d="M113.11,82.37c-1.45-12.3-3.27-20.43-3.27-20.43-.61-2.69-3.62-14.54-6.56-21.6a6.21,6.21,0,0,0-2.91-3.15A6.14,6.14,0,0,0,94,38c-2.38,1.88-2.25,5-2.21,6.41a11.64,11.64,0,0,0,.81,3.65c1.08,3.09,1.89,6.28,3.19,9.28,1.43,3.28,3.17,10.54,4.87,27.22a5.91,5.91,0,0,0,.31,2.13c.73,2.19,3,4.54,5.86,4.5,4-.06,5.72-4.59,5.88-5A8,8,0,0,0,113.11,82.37Z"/></g></svg>