<svg xmlns="http://www.w3.org/2000/svg" viewBox="0 0 32.87 31.04"><defs><style>.cls-1{fill:#e96f64;}</style></defs><g id="Layer_1" data-name="Layer 1"><path class="cls-1" d="M17,7.67A7.26,7.26,0,0,0,15.55,5a7.69,7.69,0,0,0-3.64-2.42,7.13,7.13,0,0,0-3.6-.21A7,7,0,0,0,4.58,4.48,7.3,7.3,0,0,0,2.82,8.7c-.32,2.71.68,5,2.39,8a62.8,62.8,0,0,0,7.92,10.86,48.54,48.54,0,0,0,11.25-7.17,19.73,19.73,0,0,0,3.12-2.92c1.1-1.38,2.2-2.64,2.51-4.61a7.08,7.08,0,0,0-.69-4.45,7.32,7.32,0,0,0-6.73-3.81A7.94,7.94,0,0,0,17,7.67Z"/></g></svg>