<svg xmlns="http://www.w3.org/2000/svg" viewBox="0 0 131.13 55.13"><defs><style>.cls-1{fill:#dc4c6c;}.cls-2{fill:#f48aa2;}.cls-3{fill:#231f20;}</style></defs><g id="_2hearts" data-name="2hearts"><path class="cls-1" d="M99.64,10.43a16.1,16.1,0,0,0-4.1-5.13,16.7,16.7,0,0,0-8.77-3.61A15.41,15.41,0,0,0,79,2.75a15.08,15.08,0,0,0-7,6.07,15.85,15.85,0,0,0-2,9.72c.45,5.9,3.55,10.44,8.43,16.06A136.64,136.64,0,0,0,99.84,54.39a104.84,104.84,0,0,0,20.93-20,41.12,41.12,0,0,0,5.41-7.5c1.78-3.41,3.58-6.54,3.43-10.87a15.55,15.55,0,0,0-3.34-9.17A15.73,15.73,0,0,0,119.1,2a16.14,16.14,0,0,0-8.74-.38C103.34,3.29,100.14,9.44,99.64,10.43Z"/><path class="cls-2" d="M31.81,10.43a16.1,16.1,0,0,0-4.1-5.13,16.7,16.7,0,0,0-8.77-3.61A15.38,15.38,0,0,0,11.2,2.75a15.08,15.08,0,0,0-7,6.07,15.81,15.81,0,0,0-2,9.72C2.63,24.44,5.72,29,10.61,34.6A136.49,136.49,0,0,0,32,54.39,105.13,105.13,0,0,0,53,34.42a41.64,41.64,0,0,0,5.4-7.5c1.78-3.41,3.58-6.54,3.43-10.87a15.48,15.48,0,0,0-3.34-9.17A15.73,15.73,0,0,0,51.27,2a16.1,16.1,0,0,0-8.73-.38C35.52,3.29,32.31,9.44,31.81,10.43Z"/></g><g id="eyes"><path class="cls-3" d="M25.22,34.52a8.62,8.62,0,0,0,14.08-.13c.45-.63-.59-1.23-1-.61a7.4,7.4,0,0,1-12,.13c-.45-.61-1.49,0-1,.61Z"/><path class="cls-3" d="M109.48,32.69c-1.87,3.85-6.22,5.2-10.19,4.09a.45.45,0,0,0-.24.87c4.36,1.21,9.16-.29,11.21-4.51.25-.52-.53-1-.78-.45Z"/></g></svg>