<svg xmlns="http://www.w3.org/2000/svg" viewBox="0 0 31.3 10.57"><defs><style>.cls-1{fill:#fff;}.cls-2{fill:#231f20;}</style></defs><g id="whites_of_eyes" data-name="whites of eyes"><ellipse class="cls-1" cx="3.98" cy="5.5" rx="2.85" ry="4.15"/></g><g id="eyes"><path class="cls-2" d="M6.12,2.76A3.36,3.36,0,0,0,4.93,3.85a3.75,3.75,0,0,0-.32,3.06A4.17,4.17,0,0,0,5.74,8.76a4.84,4.84,0,0,0,.41-.56,4.52,4.52,0,0,0,.51-1.31,5.72,5.72,0,0,0,.16-1.74A5.92,5.92,0,0,0,6.12,2.76Z"/><ellipse class="cls-1" cx="26.98" cy="5.5" rx="2.85" ry="4.15"/><path class="cls-2" d="M29.11,2.76a3.35,3.35,0,0,0-1.18,1.09,3.75,3.75,0,0,0-.32,3.06,4.08,4.08,0,0,0,1.13,1.85,4,4,0,0,0,.4-.56,4.33,4.33,0,0,0,.52-1.31,5.61,5.61,0,0,0-.55-4.13Z"/></g></svg>