<svg id="Layer_1" data-name="Layer 1" xmlns="http://www.w3.org/2000/svg" viewBox="0 0 279.85 342.56"><defs><style>.cls-1{fill:#edb997;}.cls-2{fill:#cea285;}.cls-3{fill:#fbc7a4;}.cls-4{fill:#231f20;}.cls-5{fill:#41332f;}.cls-6{fill:#5d473f;stroke:#231f20;stroke-miterlimit:10;stroke-width:0.25px;}.cls-7{fill:#66514c;}.cls-8{fill:#fff;}.cls-9{fill:#f8a381;}</style></defs><path class="cls-1" d="M131.25,276.34c0,2.85,1.55,4.49,2.19,10.49.79,7.34-1.49,15.66-2.71,19.62a154.18,154.18,0,0,0,24.64,2c11.61-.14,25-2.68,40.55-10.44A68.58,68.58,0,0,0,206,291.86a43.62,43.62,0,0,1-6.15-6.26c-2.17-2.69-5.46-7.46-8.14-16-4-12.75-.9-15.54-3.89-18.51C177.8,241.11,131.1,260.45,131.25,276.34Z"/><path class="cls-2" d="M132.85,283.17c1.8.46,4.42,1.09,7.63,1.7,8.33,1.58,13.57,2.57,19.56,1.83,7.61-.95,13-4.25,17.48-7.05a57.47,57.47,0,0,0,13.67-11.77q-.93-6.24-1.87-12.49L128,264.78c.9,2.7,1.78,5.57,2.61,8.61C131.49,276.8,132.24,280.07,132.85,283.17Z"/><path class="cls-3" d="M65.63,220.52c1.54,7.58,3.13,12.83,5.31,16.69C77.25,248.41,88.68,261.45,127,275c10.94,3.87,19.6,5.69,27.44,5.3,3.93-.2,18.08-.49,37.67-18.36,25.17-23,29.42-29.53,34.06-50.52,1.91-8.61.8-18-1.42-36.77-2.34-19.75-3.78-30.85-11.11-43.07-3.44-5.73-10.43-17.38-24-24-13.92-6.73-28.91-3.9-58.33,2.05-24.13,4.88-36.2,7.32-45.55,14.27-1.19.88-26.05,19.94-27.05,49.06a67.72,67.72,0,0,0,1.08,11.22"/><ellipse class="cls-4" cx="105.4" cy="184.84" rx="5.99" ry="8.03" transform="translate(-27.33 18.54) rotate(-8.9)"/><ellipse class="cls-4" cx="182.91" cy="172.7" rx="5.99" ry="8.03" transform="translate(-24.52 30.39) rotate(-8.9)"/><path class="cls-4" d="M90.12,169.09a24.63,24.63,0,0,1,12.4-6,22.79,22.79,0,0,1,11.93,1.62,1.9,1.9,0,0,0,2.31-1.31,1.93,1.93,0,0,0-1.31-2.31,26.22,26.22,0,0,0-13.93-1.62,28.42,28.42,0,0,0-14,6.92c-1.83,1.58.84,4.22,2.65,2.65Z"/><path class="cls-4" d="M193.83,148.54A28,28,0,0,0,177,147.2a26.48,26.48,0,0,0-11.24,6.1c-1.8,1.62.86,4.26,2.65,2.65a22.42,22.42,0,0,1,9.59-5.13,24.65,24.65,0,0,1,14.83,1.33,1.89,1.89,0,0,0,2.31-1.31,1.91,1.91,0,0,0-1.31-2.3Z"/><path class="cls-4" d="M131.45,229.45a32,32,0,0,0,20.1,4.82,26.17,26.17,0,0,0,19.63-12.2c.85-1.37-1.31-2.63-2.16-1.26a23.57,23.57,0,0,1-18.17,11,29.87,29.87,0,0,1-18.13-4.55c-1.37-.86-2.62,1.3-1.27,2.16Z"/><path class="cls-5" d="M225.16,160.55c-4.11-1.45-5-5.83-5.9-10.55-3.13-16-6.25-23-18.71-32.68a51.86,51.86,0,0,0-24.89-10.94c-4.52-.64-8.19-.33-15.53.27-2.84.23-9.69.87-33.45,6-7.19,1.54-10.87,2.33-15,3.44-9.83,2.62-15.15,4-20.64,6.86C80.82,128.17,75,135.71,71.92,139.69c-2.9,3.8-15.05,21.36-13.26,40.09.27,2.81,2.14,7.48.84,8.2-1.56.86-10.57-6.67-12.28-41.88-.51-10.34,4.89-21.95,2.4-23.91s-8,3.3-9.49,1.85c-2.77-2.7,13.58-23.71,17.56-28.82,10.09-13,28.59-37,96.39-45.55,12.22-1.54,31.7,6.5,40.58,21,.94,1.55,3.06,7,3.06,7S223,73.79,234.64,150a13.48,13.48,0,0,1-2,9"/><path class="cls-6" d="M232.2,156.44c-.17.29-.36.59-.56.88"/><path class="cls-7" d="M66.58,112a44.34,44.34,0,0,1,36.13.64c1.45.68,2.72-1.47,1.26-2.16a47.1,47.1,0,0,0-38.65-.64c-1.47.63-.2,2.79,1.26,2.16Z"/><path class="cls-7" d="M93.84,89.63a38.43,38.43,0,0,1,22.26-3.12c6.89,1.16,13.5,4.32,19.4,8a62.21,62.21,0,0,1,9.86,7.62c1.17,1.1,2.95-.66,1.77-1.77a70.06,70.06,0,0,0-18.94-12.54,42.22,42.22,0,0,0-23.55-3.89,42.74,42.74,0,0,0-12.06,3.57c-1.46.66-.19,2.82,1.26,2.16Z"/><path class="cls-7" d="M146.56,81.42a50.39,50.39,0,0,1,20.2,3.13,21.8,21.8,0,0,1,12.89,13.74c.51,1.51,2.92.86,2.41-.67a24.45,24.45,0,0,0-13.58-15.07,51,51,0,0,0-21.92-3.63c-1.6.08-1.61,2.58,0,2.5Z"/><path class="cls-3" d="M217.61,159.1a21.76,21.76,0,0,1,7.07,4.69c7.06,7.07,9.52,19.94,3.64,28.93-.59.9-4.9,7.48-8.21,6.54S214.49,189.77,217.61,159.1Z"/><path class="cls-3" d="M61,187.21c-.56-.34-6.27-3.81-10.05-1.56s-3.39,9.13-3,14.48a36.7,36.7,0,0,0,6.26,18.33c1.91,2.79,5.47,8,8.86,7.29,1.24-.24,2.66-1.3,4.15-4.95"/><path class="cls-3" d="M221.05,160.68c.43-.5,4.8-5.55,9.09-4.56s6,7.65,7.33,12.84a36.72,36.72,0,0,1-.34,19.37c-1,3.24-2.77,9.25-6.21,9.66-1.25.15-2.92-.42-5.46-3.45"/><path class="cls-4" d="M144,184.34q1.83,10.09,3.65,20.18l1.21-1.58-6.35-.45c-1.6-.12-1.59,2.38,0,2.5l6.35.45a1.27,1.27,0,0,0,1.21-1.58l-3.66-20.19c-.28-1.58-2.69-.91-2.41.67Z"/><path class="cls-8" d="M230.39,32.72c-3.65,1-8.12,2-10.59,5.16-2.34,3-2.5,7.34-2.83,11l1.48-.2c-1-3.65-2-8.13-5.17-10.59-3-2.35-7.34-2.5-10.95-2.83l.2,1.48c3.65-1,8.12-2,10.59-5.17,2.34-3,2.5-7.34,2.83-11l-1.48.2c1,3.64,2,8.12,5.17,10.59,3,2.34,7.34,2.49,11,2.82,1,.09.95-1.41,0-1.5-3.39-.31-7.76-.4-10.45-2.85s-3.34-6.28-4.22-9.46a.75.75,0,0,0-1.47.2C214.14,24,214,28.34,211.6,31s-6.29,3.34-9.47,4.22a.75.75,0,0,0,.2,1.47c3.39.31,7.76.41,10.45,2.85S216.12,45.86,217,49a.75.75,0,0,0,1.47-.2c.31-3.39.41-7.76,2.85-10.45s6.29-3.34,9.47-4.22A.75.75,0,0,0,230.39,32.72Z"/><path class="cls-8" d="M270.85,46c-6,1.63-13.11,3.28-17.19,8.31s-4.33,12.19-4.87,18.27l3.69-.49c-1.64-6-3.28-13.11-8.32-17.2S232,50.6,225.89,50.06l.5,3.69c6-1.64,13.1-3.28,17.19-8.32s4.33-12.19,4.86-18.27l-3.68.5c1.63,5.95,3.28,13.1,8.31,17.19s12.19,4.33,18.27,4.86c2.41.22,2.39-3.54,0-3.75-5.23-.46-11.95-.59-16.17-4.23s-5.41-10-6.79-15.07c-.59-2.13-3.51-1.53-3.69.5-.46,5.23-.59,12-4.22,16.18s-10.06,5.41-15.08,6.79c-2.13.59-1.53,3.5.5,3.68,5.23.46,12,.59,16.18,4.23s5.41,10.05,6.79,15.07c.59,2.14,3.5,1.54,3.68-.5.47-5.23.59-12,4.23-16.17s10.05-5.42,15.07-6.79A1.88,1.88,0,0,0,270.85,46Z"/><path class="cls-8" d="M56.37,304.41c-6.46,1.77-14.29,3.55-18.74,9s-4.73,13.29-5.32,19.93l3.69-.5c-1.77-6.46-3.56-14.3-9-18.75s-13.29-4.72-19.92-5.31l.5,3.68c6.46-1.76,14.29-3.55,18.74-9s4.73-13.29,5.32-19.92l-3.69.49c1.77,6.46,3.55,14.3,9,18.75s13.3,4.72,19.93,5.31c2.4.22,2.39-3.54,0-3.75-5.77-.51-13.17-.68-17.82-4.67s-6-11.1-7.51-16.63c-.59-2.14-3.5-1.54-3.68.5-.52,5.77-.68,13.16-4.68,17.82s-11.1,6-16.63,7.51c-2.14.58-1.53,3.5.5,3.68,5.77.51,13.16.68,17.82,4.67s6,11.1,7.51,16.63c.58,2.14,3.5,1.54,3.68-.49.51-5.77.68-13.17,4.68-17.83s11.1-6,16.63-7.5A1.88,1.88,0,0,0,56.37,304.41Z"/><circle class="cls-9" cx="84.65" cy="221.44" r="18.7"/><circle class="cls-9" cx="208.46" cy="195.7" r="18.7"/></svg>