<svg xmlns="http://www.w3.org/2000/svg" viewBox="0 0 108.5 95.48"><defs><style>.cls-1{fill:#ea973c;}.cls-2{fill:#edb666;}.cls-3{font-size:12px;fill:#dc5648;font-family:Helvetica-Bold, Helvetica;font-weight:700;}</style></defs><g id="Layer_19" data-name="Layer 19"><path class="cls-1" d="M87.26,32.92a24.67,24.67,0,0,1,5.59,6.91A24.28,24.28,0,0,1,95.91,49c.75,6.9-2.43,12.28-4.49,15.76-5.12,8.66-12.51,12.86-16.32,15-8.06,4.5-15.3,5.56-20.7,6.36a74.75,74.75,0,0,1-16.15.62L28.64,76.41C57.19,47.56,81.53,28.7,87.26,32.92Z"/><path class="cls-2" d="M56.4,29.8a26,26,0,0,1,12.69-4.23c2.23-.13,12.44-.7,19,7.16,6,7.14,4.58,16,4.16,18.09-1,4.88-3.34,8.09-5.88,11.43a51.34,51.34,0,0,1-16,13.47C55.4,83.94,39.74,83,33.3,82.22a80.06,80.06,0,0,1-9.91-12.33c-4.2-6.42-9.32-14.27-10.49-25.27-.54-5.08-1.76-16.48,5.66-25.89,1.34-1.69,8-10.12,18.38-10.1a19.5,19.5,0,0,1,11.88,4C56.65,18.7,56.44,28.65,56.4,29.8Z"/><text class="cls-3" transform="translate(41.33 45.86) rotate(18.58)">BE<tspan x="-6.67" y="14.4">MINE</tspan></text></g></svg>