<svg xmlns="http://www.w3.org/2000/svg" viewBox="0 0 108.5 95.48"><defs><style>.cls-1{fill:#dc5b99;}.cls-2{fill:#eba0c1;}.cls-3{font-size:12px;fill:#dc5648;font-family:Helvetica-Bold, Helvetica;font-weight:700;}</style></defs><g id="Layer_19" data-name="Layer 19"><path class="cls-1" d="M76.33,9a24.64,24.64,0,0,1,8.48,2.68,24.4,24.4,0,0,1,7.58,5.92c4.43,5.34,4.74,11.59,5,15.62.51,10-3.34,17.64-5.35,21.5-4.24,8.2-9.69,13.08-13.76,16.72A74.5,74.5,0,0,1,65.1,80.82L51.43,77.56C59.33,37.75,69.22,8.59,76.33,9Z"/><path class="cls-2" d="M48.87,23.37a26.09,26.09,0,0,1,8.26-10.53c1.79-1.33,10-7.45,19.82-4.52C85.89,11,89.59,19.12,90.4,21.1c1.9,4.6,1.68,8.59,1.41,12.78a51.2,51.2,0,0,1-5.89,20c-8,15.16-21.61,23-27.39,25.92A79.85,79.85,0,0,1,43.45,75c-7-3-15.64-6.76-22.69-15.29C17.51,55.8,10.21,47,11.21,35c.18-2.15,1.08-12.84,9.75-18.56a19.51,19.51,0,0,1,12.11-3.23C43,14,48.27,22.39,48.87,23.37Z"/><text class="cls-3" transform="translate(36.84 50.9) rotate(-7.03)">XOXO</text></g></svg>