<svg xmlns="http://www.w3.org/2000/svg" viewBox="0 0 108.5 95.48"><defs><style>.cls-1{fill:#949acd;}.cls-2{fill:#c3badc;}.cls-3{font-size:12px;fill:#dc5648;font-family:Helvetica-Bold, Helvetica;font-weight:700;}</style></defs><g id="Layer_19" data-name="Layer 19"><path class="cls-1" d="M30.09,15.41a25.11,25.11,0,0,0-8.35,3.05,24.6,24.6,0,0,0-7.32,6.25c-4.18,5.53-4.23,11.78-4.25,15.82C10.1,50.6,14.28,58,16.45,61.78c4.6,8,10.26,12.64,14.48,16.1a74.83,74.83,0,0,0,13.53,8.84L58,82.87C48.34,43.44,37.18,14.75,30.09,15.41Z"/><path class="cls-2" d="M58.16,28.62a26.12,26.12,0,0,0-8.71-10.16c-1.85-1.25-10.3-7-20-3.65-8.81,3-12.15,11.35-12.88,13.36-1.69,4.68-1.29,8.66-.83,12.83a51.07,51.07,0,0,0,6.75,19.76c8.67,14.8,22.6,22,28.51,24.69A79.63,79.63,0,0,0,65.84,80c6.9-3.35,15.33-7.44,22-16.27,3.08-4.07,10-13.22,8.46-25.11C96,36.46,94.66,25.82,85.74,20.48A19.48,19.48,0,0,0,73.5,17.79C63.65,19,58.72,27.61,58.16,28.62Z"/><text class="cls-3" transform="translate(31.87 50.64) rotate(6.16)">HUG ME</text></g></svg>