<svg xmlns="http://www.w3.org/2000/svg" xmlns:xlink="http://www.w3.org/1999/xlink" viewBox="0 0 55.17 55.96"><defs><style>.cls-1{fill:url(#linear-gradient);}.cls-2{fill:#fff;}</style><linearGradient id="linear-gradient" x1="28.16" y1="3.61" x2="28.16" y2="51.35" gradientUnits="userSpaceOnUse"><stop offset="0" stop-color="#ee307e"/><stop offset="1" stop-color="#f2665f"/></linearGradient></defs><g id="tinder"><rect class="cls-1" x="4.29" y="3.61" width="47.74" height="47.74" rx="12"/><path class="cls-2" d="M19.28,18.6a12.83,12.83,0,0,0-4.35,3.48c-3.88,4.86-2.61,10.84-2.43,11.65a14.79,14.79,0,0,0,5.74,8.52,15.17,15.17,0,0,0,16,.69,15.62,15.62,0,0,0,7.13-9.56,17.2,17.2,0,0,0-1-11C37.19,14.47,30,11,28,10.08a19,19,0,0,1,0,5,13.27,13.27,0,0,1-1.05,4,11.1,11.1,0,0,1-6.08,5.22,19.08,19.08,0,0,1-1.22-3.66A18.07,18.07,0,0,1,19.28,18.6Z"/></g></svg>