<svg xmlns="http://www.w3.org/2000/svg" viewBox="0 0 108.5 95.48"><defs><style>.cls-1{fill:#e2ba46;}.cls-2{fill:#e6dd9d;}.cls-3{font-size:12px;fill:#dc5648;font-family:Helvetica-Bold, Helvetica;font-weight:700;}</style></defs><g id="Layer_19" data-name="Layer 19"><path class="cls-1" d="M21.24,32.92a24.67,24.67,0,0,0-5.59,6.91A24.28,24.28,0,0,0,12.59,49c-.75,6.9,2.43,12.28,4.49,15.76,5.12,8.66,12.51,12.86,16.32,15,8.06,4.5,15.3,5.56,20.7,6.36a74.75,74.75,0,0,0,16.15.62l9.61-10.26C51.31,47.56,27,28.7,21.24,32.92Z"/><path class="cls-2" d="M52.1,29.8a26,26,0,0,0-12.69-4.23c-2.23-.13-12.44-.7-19,7.16-6,7.14-4.58,16-4.16,18.09.95,4.88,3.34,8.09,5.88,11.43a51.34,51.34,0,0,0,16,13.47C53.1,83.94,68.76,83,75.2,82.22a80.06,80.06,0,0,0,9.91-12.33c4.2-6.42,9.32-14.27,10.49-25.27.54-5.08,1.76-16.48-5.66-25.89C88.6,17,82,8.61,71.56,8.63a19.5,19.5,0,0,0-11.88,4C51.85,18.7,52.06,28.65,52.1,29.8Z"/><text class="cls-3" transform="translate(46.61 52.56) rotate(-16.96)">LOVE<tspan x="3.33" y="14.4">YOU</tspan></text></g></svg>